<svg xmlns="http://www.w3.org/2000/svg" xmlns:xlink="http://www.w3.org/1999/xlink" width="197" height="45.397" viewBox="0 0 197 45.397">
  <defs>
    <style>
      .cls-1 {
        fill: url(#linear-gradient);
      }

      .cls-2 {
        fill: url(#linear-gradient-19);
      }
    </style>
    <linearGradient id="linear-gradient" x1="0.5" y1="-2.971" x2="2.922" y2="0.82" gradientUnits="objectBoundingBox">
      <stop offset="0" stop-color="#fe3a6d"/>
      <stop offset="1" stop-color="#452937"/>
    </linearGradient>
    <linearGradient id="linear-gradient-19" x1="0.5" x2="0.5" y2="1" gradientUnits="objectBoundingBox">
      <stop offset="0" stop-color="#fe3a6d"/>
      <stop offset="1" stop-color="#f9795a"/>
    </linearGradient>
  </defs>
  <g id="Group_4" data-name="Group 4" transform="translate(813 707)">
    <g id="_1300231" data-name="1300231" transform="translate(-813 -707)">
      <path id="Path_1" data-name="Path 1" class="cls-1" d="M47.783-510.776c-.047.006-.367.059-.7.112a21.847,21.847,0,0,0-2.516.592,17.35,17.35,0,0,0-6.9,4.014,29.81,29.81,0,0,1-8.147,5.376,60.881,60.881,0,0,1-8.484,3.191,3.156,3.156,0,0,0-.639.225c.047.047,2.38-.645,3.973-1.184a43.128,43.128,0,0,0,11.3-5.441,25.971,25.971,0,0,0,2.309-1.912,23.4,23.4,0,0,1,2.765-2.2,18.429,18.429,0,0,1,6.927-2.688c.308-.059.485-.112.385-.112A1.47,1.47,0,0,0,47.783-510.776Z" transform="translate(-20.394 510.8)"/>
      <path id="Path_2" data-name="Path 2" class="cls-1" d="M587.911-504.523a3.458,3.458,0,0,0-.752.112c-.266.148-.219.2.9,1.078.3.231,1.036.876,1.652,1.439,1.285,1.172,1.439,1.285,2.013,1.474a4.585,4.585,0,0,0,1.693.136c.7,0,2.327-.036,3.612-.083,2.546-.089,8.058-.059,9.562.047.456.036,1.018.077,1.243.089l.414.036-.562-.272a79.862,79.862,0,0,0-8.851-3.339,53.893,53.893,0,0,0-5.388-.651C592.482-504.535,588.746-504.582,587.911-504.523Z" transform="translate(-553.477 504.92)"/>
      <path id="Path_3" data-name="Path 3" class="cls-1" d="M420.062-493.489a18.664,18.664,0,0,0-4.026,1c-.758.272-1.036.426-1.036.551a6.076,6.076,0,0,0,.491.58,9.711,9.711,0,0,1,1.492,2.1c.16.29.29.539.3.551s1.2-.03,8.247-.308c1.083-.041,1.977-.089,2-.1a8.6,8.6,0,0,0-.841-1.338,7.4,7.4,0,0,0-4.358-2.943A9.25,9.25,0,0,0,420.062-493.489Z" transform="translate(-391.637 494.543)"/>
      <path id="Path_4" data-name="Path 4" class="cls-1" d="M326.531-460.479a8.025,8.025,0,0,0-3.339,2.723.544.544,0,0,0-.118.219,1.317,1.317,0,0,0,.349-.065,27.055,27.055,0,0,1,5.1-.379c1.468,0,1.468,0,1.214-.521a9.3,9.3,0,0,0-1.4-1.983C327.733-461.089,327.716-461.089,326.531-460.479Z" transform="translate(-305.152 463.89)"/>
      <path id="Path_5" data-name="Path 5" class="cls-1" d="M748.14-425.575c-.5.024-2.09.077-3.523.112s-2.646.083-2.694.089a4.352,4.352,0,0,0,.681.03,77.723,77.723,0,0,1,11.427,1.16c.651.112,1.6.278,2.1.361a5.73,5.73,0,0,1,2.013.557A13.794,13.794,0,0,1,762.9-419c.136.2-.935-1.966-1.445-2.913-.414-.764-.485-1.036-.32-1.172a22.728,22.728,0,0,1,4.517-.355,11.565,11.565,0,0,1,3.481.651,2.44,2.44,0,0,0,.545.148,11.031,11.031,0,0,0-1.942-.876c-2.333-.781-6.43-1.421-12.581-1.966C753.93-425.6,749.608-425.652,748.14-425.575Z" transform="translate(-699.2 430.655)"/>
      <path id="Path_6" data-name="Path 6" class="cls-1" d="M1080.6-382.775c-1.841.077-2.28.13-2.41.29-.178.219-.13.485.207,1.143a13.991,13.991,0,0,0,1.4,2.185,2.288,2.288,0,0,0,.562.444c.29.154.349.16,1.753.2,1.6.053,3.884.16,4.541.213.4.03.432.024.574-.118a.491.491,0,0,0,.154-.414,9.993,9.993,0,0,0-.859-2.718c-.314-.474-1.03-.764-2.712-1.113A9.878,9.878,0,0,0,1080.6-382.775Z" transform="translate(-1015.465 390.407)"/>
      <path id="Path_7" data-name="Path 7" class="cls-1" d="M901.166-381.7a1.341,1.341,0,0,0-.633.681c-.107.539.61,1.539,1.385,1.93.918.468,2.084.391,2.422-.166.438-.716-.355-1.752-1.788-2.339A2.225,2.225,0,0,0,901.166-381.7Z" transform="translate(-848.413 389.41)"/>
      <path id="Path_8" data-name="Path 8" class="cls-1" d="M938.134-381.636c1.083.574,1.681,1.2,1.687,1.753a1.352,1.352,0,0,1-.462.864c-.249.207-.219.225.1.059a.966.966,0,0,0,.568-1.078,2.575,2.575,0,0,0-1.859-1.711C937.684-381.914,937.672-381.885,938.134-381.636Z" transform="translate(-883.481 389.487)"/>
      <path id="Path_9" data-name="Path 9" class="cls-1" d="M978.8-381.727c-.918.521-.083,2.4,1.362,3.085,1.492.71,2.493.112,2.013-1.2a2.354,2.354,0,0,0-.669-.882,3.363,3.363,0,0,0-1.06-.793,1.871,1.871,0,0,0-1.007-.278A1.294,1.294,0,0,0,978.8-381.727Z" transform="translate(-921.692 389.435)"/>
      <path id="Path_10" data-name="Path 10" class="cls-1" d="M1019.707-376.934c1.012.811,1.522,1.563,1.468,2.161a2.543,2.543,0,0,1-.077.432c-.041.107-.03.1.107-.024a1.177,1.177,0,0,0,.255-.391.66.66,0,0,0,.024-.509,3.384,3.384,0,0,0-1.747-1.705l-.237-.13Z" transform="translate(-960.347 385.016)"/>
      <path id="Path_11" data-name="Path 11" class="cls-1" d="M1227.1-359.818c-.071.178.047.509.509,1.427.592,1.19.941,1.581,1.042,1.172a4.352,4.352,0,0,0-.829-2.125C1227.464-359.836,1227.174-360.025,1227.1-359.818Z" transform="translate(-1155.635 368.835)"/>
      <path id="Path_12" data-name="Path 12" class="cls-1" d="M743.033-342.817a3.21,3.21,0,0,1,2.285,1.486,8.77,8.77,0,0,1,.764,5.82,6.2,6.2,0,0,1-1.539,3.552,3.317,3.317,0,0,1-1.6.882l-.444.118h.539c2.581.018,4.21-2.149,4.328-5.767a7.519,7.519,0,0,0-.746-3.789,4.146,4.146,0,0,0-1.93-2.072,3.165,3.165,0,0,0-1.616-.32l-.574.006Z" transform="translate(-699.747 352.846)"/>
      <path id="Path_13" data-name="Path 13" class="cls-1" d="M329-305.916c0,.089.651,1.96.758,2.161a1.986,1.986,0,0,0,.823.77c.249.107.912.124,9.7.255l5.861.089,1.539.03-1.776-.112c-.977-.065-3.162-.2-4.855-.3-8.141-.468-9.135-.533-9.538-.622a3.508,3.508,0,0,1-2.167-1.776A5.114,5.114,0,0,0,329-305.916Z" transform="translate(-310.729 318.047)"/>
      <path id="Path_14" data-name="Path 14" class="cls-1" d="M343.042-239.263c-.829.118-1.563.231-1.628.249-.142.03,2.516.095,6.187.142,2.528.036,9.041-.059,10.035-.148.343-.03-.059-.053-1.451-.083-2.356-.047-8.52-.255-11.042-.361A10.617,10.617,0,0,0,343.042-239.263Z" transform="translate(-322.402 255.533)"/>
      <path id="Path_15" data-name="Path 15" class="cls-1" d="M852.4-233.6c-.035.053.083,2.848.124,2.9s1.427.172,2.984.3a108.986,108.986,0,0,0,12.256.3c6.075-.2,8.484-.491,9.455-1.143.521-.349.61-.8.284-1.5l-.148-.326-.178.148c-.941.793-6.347,1.273-11.871,1.048-2.552-.1-5.08-.237-5.559-.3a2.38,2.38,0,0,1-1.788-1.042l-.231-.332-.308.041c-.314.036-4.446-.065-4.8-.118C852.52-233.647,852.419-233.636,852.4-233.6Z" transform="translate(-803.13 250.047)"/>
      <path id="Path_16" data-name="Path 16" class="cls-1" d="M773.564-218.144a5.651,5.651,0,0,1-1.9,3.535,6.154,6.154,0,0,1-1.587.87.073.073,0,0,0-.077.071c0,.047.314.053,1.231.03a10.367,10.367,0,0,0,2.54-.249,8.43,8.43,0,0,0,1.735-1.551,2.251,2.251,0,0,0-.722-.1c-1.078-.059-.995.059-1.03-1.456-.012-.7-.047-1.362-.071-1.474C773.641-218.647,773.629-218.612,773.564-218.144Z" transform="translate(-725.619 235.87)"/>
      <path id="Path_17" data-name="Path 17" class="cls-1" d="M218.974-207.817c1.279.237,11.96,1.877,12.344,1.9.243.012,2.789.03,5.654.041,4.659.018,5.086.012,4.026-.053-4.8-.3-10.977-.841-19.094-1.652-1.451-.148-2.806-.278-3.02-.3l-.385-.024Z" transform="translate(-206.771 225.833)"/>
      <path id="Path_18" data-name="Path 18" class="cls-1" d="M1054.578-164.756c-.373.024-2.232.053-4.127.065s-3.452.03-3.452.047a7.092,7.092,0,0,0,.965.835,7.292,7.292,0,0,0,1.7.864,5.6,5.6,0,0,0,3.079.006,8.559,8.559,0,0,0,2.019-.947,4.5,4.5,0,0,0,1-.888C1055.762-164.833,1055.543-164.833,1054.578-164.756Z" transform="translate(-986.219 185.3)"/>
    </g>
    <path id="Path_20" data-name="Path 20" class="cls-2" d="M18.686-73.374q-.145,2.181-.426,7.956-.145,3.552-.218,8h-3.76l-.1-4.892-3.666,5.276L6.555-62.271l-.1,4.85H2.712q-.073-2.378-.28-8.039-.145-3.261-.53-7.914H7.853q.312.758,1.07,2.451.582,1.2,1.589,2.846.447-.706,1.641-2.918.426-.82,1.091-2.378ZM33.465-65.74a10.077,10.077,0,0,1-1.89,6.2A6.087,6.087,0,0,1,26.5-56.891a6.13,6.13,0,0,1-5.162-2.669,10.1,10.1,0,0,1-1.859-6.18A8.814,8.814,0,0,1,21.5-71.889a6.44,6.44,0,0,1,5-2.1,6.365,6.365,0,0,1,4.944,2.108A8.822,8.822,0,0,1,33.465-65.74Zm-5,1.828q0-2.887-1.953-2.887-1.9,0-1.9,2.908a4.827,4.827,0,0,0,.5,2.171q.561,1.132,1.381,1.132.8,0,1.413-1.153A4.547,4.547,0,0,0,28.469-63.912Zm18.466-9.462-.3,6.533q-.405-.062-1.3-.156-.55-.031-1.786-.062-.062.613-.218,2.96-.114,2.275-.374,6.678H37.931q-.083-2.1-.312-6.6-.1-1.558-.218-3.043L35.761-67l-1.485.156-.26-6.533ZM61.476-65.74a10.077,10.077,0,0,1-1.89,6.2,6.087,6.087,0,0,1-5.079,2.648,6.13,6.13,0,0,1-5.162-2.669,10.1,10.1,0,0,1-1.859-6.18,8.814,8.814,0,0,1,2.025-6.149,6.44,6.44,0,0,1,5-2.1,6.365,6.365,0,0,1,4.944,2.108A8.822,8.822,0,0,1,61.476-65.74Zm-5,1.828q0-2.887-1.953-2.887-1.9,0-1.9,2.908a4.828,4.828,0,0,0,.5,2.171q.561,1.132,1.381,1.132.8,0,1.413-1.153A4.547,4.547,0,0,0,56.481-63.912ZM76.214-67.4a5.618,5.618,0,0,1-1.07,3.386,5.312,5.312,0,0,1-2.368,1.849q.3.467,1.485,1.963A24.194,24.194,0,0,0,76.069-58.4q-.488.177-2.15.893-1.163.53-2.191,1.039-.3-.374-1.34-1.932-.478-.789-1.4-2.659h-.021l-.1,3.635H63.014q-.114-2.264-.322-7.468-.093-3.064-.426-8.485a50.062,50.062,0,0,1,5.214-.3Q76.214-73.675,76.214-67.4ZM71.5-65.159a1.467,1.467,0,0,0-.831-1.413,3.064,3.064,0,0,0-1.537-.27l-.062,3.552a3.052,3.052,0,0,0,1.537-.384A1.6,1.6,0,0,0,71.5-65.159Z" transform="translate(-814.476 -605.694)"/>
    <path id="Path_19" data-name="Path 19" class="cls-2" d="M38.37-198.75l-.84,18.223q-1.13-.174-3.621-.435-1.535-.087-4.983-.174-.174,1.709-.608,8.257-.319,6.345-1.043,18.629H13.251q-.232-5.852-.869-18.4-.29-4.346-.608-8.489l-4.578.174-4.143.435L2.329-198.75Zm37.142,44.5H59.664L58.592-158.1q-.666.261-3.332,1.767a33.26,33.26,0,0,0-3.8,2.926l-1.651-3.506q-.493-1.043-1.42-2.926l-1.564,5.592h-8.4q1.854-7.156,5.736-23.612,2.376-11.009,3.969-20.889H65.545q.811,4.549,4.433,21.178Q71.977-168.88,75.512-154.249Zm-18.281-9.5q-.493-1.535-1.738-4.983-.753-1.912-2.289-5.273-.666,1.68-2.086,5.5-.782,2.2-1.854,6,.869,0,3.94-.348A28.515,28.515,0,0,0,57.231-163.752Zm61.42-35q-1.159,2.2-5.881,10.633-2.694,4.664-8.054,13.327l10.546,20.541H101.789l-5.5-9.068q-3.592,5.5-5.707,9.068H78.728q1.535-2.318,6.75-10.922,2.028-3.477,4.578-7.938-1.912-3.129-6.171-10.517-4.635-8.315-8.2-15.123H95.618q.377,1.217,1.622,4.751.753,2.028,1.883,4.375.724-1.246,2.318-4.259.927-1.883,2.144-4.867Z" transform="translate(-734.651 -508.194)"/>
  </g>
</svg>
